<?xml version="1.0" encoding="utf-8"?>
<!-- Generator: Adobe Illustrator 16.0.0, SVG Export Plug-In . SVG Version: 6.00 Build 0)  -->
<!DOCTYPE svg PUBLIC "-//W3C//DTD SVG 1.1//EN" "http://www.w3.org/Graphics/SVG/1.1/DTD/svg11.dtd">
<svg version="1.1" id="Layer_1" xmlns="http://www.w3.org/2000/svg" xmlns:xlink="http://www.w3.org/1999/xlink" x="0px" y="0px"
	 width="994.637px" height="1000px" viewBox="0 0 994.637 1000" enable-background="new 0 0 994.637 1000" xml:space="preserve">
<g>
	<rect width="994.637" height="1000"/>
	<path fill="#FFFFFF" d="M628.196,652.581l-89.443-151.333l89.443-151.468l43.17,151.468L628.196,652.581z M428.869,638.076
		L316.425,525.799h178.802L584.62,677.2L428.869,638.076z M428.869,364.351l155.75-39.157l-89.393,151.433H316.425L428.869,364.351z
		 M657.674,250.69l-203.543,53.323l-30.118,51.972l-61.163-0.472L213.861,501.248L362.85,646.879l61.129-0.438l30.186,51.939
		l203.509,53.355l54.535-198.953l-30.998-51.535l30.998-51.535L657.674,250.69z"/>
</g>
</svg>
